<?xml version="1.0" encoding="utf-8"?>
<!-- Generator: Adobe Illustrator 21.0.0, SVG Export Plug-In . SVG Version: 6.00 Build 0)  -->
<svg version="1.1" id="Layer_1" xmlns="http://www.w3.org/2000/svg" xmlns:xlink="http://www.w3.org/1999/xlink" x="0px" y="0px"
	 viewBox="0 0 250 150" style="enable-background:new 0 0 250 150;" xml:space="preserve">
<style type="text/css">
	.st0{fill:#FFFFFF;}
	.st1{fill:#D4145A;stroke:#FF862E;stroke-width:2.5338;stroke-miterlimit:10;}
	.st2{fill:none;stroke:#FF862E;stroke-width:2.5338;stroke-miterlimit:10;}
</style>
<g>
	<path class="st0" d="M0,29.6v91.6h250.1V29.6H0z M38.6,86.2l0.2,2.1h14.6v17.1H20.9V45.7h32.4l0.2,23.2l-16.3-1L38.6,86.2z
		 M116.1,91c0,8.1-6.5,14.4-14.4,14.4H83.9c-6.1,0-11.3-3.8-13.4-9.2l0,0c-0.6-1.5-1-3.3-1-5.2V59.9c0-8.1,6.5-14.4,14.4-14.4h17.9
		c6.7,0,12.1,4.4,13.8,10.4c0.4,1.3,0.6,2.7,0.6,4V91z M169.5,91.6c-2.3,8.1-9.6,14-18.2,14h-25.3V45.3h25.3c10.6,0,19,8.6,19,19
		v22.1C170.3,88.1,170.1,89.8,169.5,91.6L169.5,91.6z M227.6,107.3h-48.6V47.2l2.3-0.2l46.3-3.3v15.7l-26.1-0.8l-3.1-0.2v13.2h29.2
		v9.8h-29.2v16.7h29.2V107.3z"/>
	<g>
		<polygon class="st1" points="38.8,88.3 50.5,88.3 50.5,104 20.9,104 20.9,45.7 50.5,45.7 50.7,66 33.8,65.1 35.3,86.2 38.6,86.2 
					"/>
		<polygon class="st2" points="38.6,86.2 50.5,86.2 50.5,88.3 38.8,88.3 		"/>
		<polygon class="st2" points="50.5,45.7 20.9,45.7 20.9,104 16.7,104 16.7,41.9 50.5,41.9 		"/>
		<path class="st1" d="M115.5,55.9v30.7c0,8.3-6.7,15-15,15H82c-4.6,0-8.8-2.1-11.5-5.4l0,0c-0.6-1.5-1-3.3-1-5.2V59.9
			c0-8.1,6.5-14.4,14.4-14.4h17.9C108.4,45.5,113.8,49.9,115.5,55.9z"/>
		<path class="st2" d="M115.5,54.1v1.7c-1.7-6-7.1-10.4-13.8-10.4H83.9c-7.9,0-14.4,6.3-14.4,14.4V91c0,1.7,0.4,3.5,1,5.2
			c-2.1-2.5-3.5-6-3.5-9.6V54.1c0-8.3,6.7-15,15-15h18.6C109,39.2,115.7,45.9,115.5,54.1z"/>
		<path class="st1" d="M170.3,64.3v22.1c0,1.7-0.2,3.5-0.8,5l0,0c-3.5,6.1-9.8,10.2-17.3,10.2h-26.3V45.3h25.3
			C161.8,45.3,170.3,53.9,170.3,64.3z"/>
		<path class="st2" d="M172,58.9v23c0,3.5-1,6.7-2.5,9.4c0.4-1.5,0.8-3.3,0.8-5V64.3c0-10.4-8.4-19-19-19h-25.3v-6.1h26.3
			C163.2,39.2,172.2,48,172,58.9z"/>
		<polygon class="st1" points="198.5,58.6 198.5,71.8 227.6,71.8 227.6,78.7 201.5,78.7 201.5,81.6 198.5,81.6 198.5,98.3 
			227.6,98.3 227.6,105.4 181.4,105.4 181.4,47 227.6,43.8 227.6,55.7 201.5,54.9 201.5,58.7 		"/>
		<polygon class="st2" points="231.9,39.2 231.9,55.9 227.6,55.7 227.6,43.8 181.4,47 181.4,43 		"/>
		<polygon class="st2" points="201.5,68.7 231.9,68.7 231.9,78.7 227.6,78.7 227.6,71.8 198.5,71.8 198.5,58.6 201.5,58.7 		"/>
		<polygon class="st2" points="201.5,96.4 231.9,96.4 231.9,105.4 227.6,105.4 227.6,98.3 198.5,98.3 198.5,81.6 201.5,81.6 		"/>
	</g>
</g>
</svg>
