<?xml version="1.0" encoding="utf-8"?>
<!-- Generator: Adobe Illustrator 21.0.0, SVG Export Plug-In . SVG Version: 6.00 Build 0)  -->
<svg version="1.1" id="Layer_1" xmlns="http://www.w3.org/2000/svg" xmlns:xlink="http://www.w3.org/1999/xlink" x="0px" y="0px"
	 viewBox="0 0 160 160" style="enable-background:new 0 0 160 160;" xml:space="preserve">
<style type="text/css">
	.st0{fill:#FFFFFF;}
	.st1{fill:#D4145A;}
	.st2{fill:none;stroke:#FF862E;stroke-width:1.3201;stroke-miterlimit:10;}
	.st3{fill:#FFFFFF;stroke:#000000;stroke-miterlimit:10;}
</style>
<rect x="0.5" y="-1.5" class="st0" width="160" height="162"/>
<rect x="4" y="4" class="st1" width="152" height="152"/>
<g>
	<path class="st0" d="M14.9,55.5v47.7h130.3V55.5H14.9z M35.1,86.1h7.6V95H25.8V63.9h16.9L42.8,76l-8.5-0.5L35.1,86.1z M75.4,87.5
		c0,4.2-3.4,7.5-7.5,7.5h-9.3c-4.2,0-7.5-3.4-7.5-7.5V71.3c0-4.2,3.4-7.5,7.5-7.5h9.3c4.2,0,7.5,3.4,7.5,7.5V87.5z M103.6,85.1
		c0,5.5-4.5,9.9-9.9,9.9H80.5V63.7h13.2c5.5,0,9.9,4.5,9.9,9.9V85.1z M133.5,71.1l-15.2-0.5v6.9h15.2v5.1h-15.2v8.7h15.2V96h-25.3
		V64.7l25.3-1.8V71.1z"/>
	<g>
		<polygon class="st2" points="41.2,61.9 41.3,74.5 32.5,74 33.3,85 41.2,85 41.2,94.3 23.6,94.3 23.6,61.9 		"/>
		<path class="st2" d="M67.3,60.5h-9.7c-4.3,0-7.8,3.5-7.8,7.8v16.9c0,4.3,3.5,7.8,7.8,7.8h9.7c4.3,0,7.8-3.5,7.8-7.8V68.3
			C75.2,64,71.7,60.5,67.3,60.5z"/>
		<path class="st2" d="M94.2,60.5H80.5v32.6h13.7c5.7,0,10.3-4.6,10.3-10.3v-12C104.6,65.1,99.9,60.5,94.2,60.5z"/>
		<polygon class="st2" points="119.9,75.9 119.9,68.7 135.7,69.2 135.7,60.5 109.4,62.5 109.4,95 135.7,95 135.7,90.3 119.9,90.3 
			119.9,81.1 135.7,81.1 135.7,75.9 		"/>
	</g>
</g>
<rect x="208.5" y="211.5" class="st3" width="160" height="162"/>
</svg>
