<?xml version="1.0" encoding="utf-8"?>
<!-- Generator: Adobe Illustrator 21.0.0, SVG Export Plug-In . SVG Version: 6.00 Build 0)  -->
<svg version="1.1" id="Layer_1" xmlns="http://www.w3.org/2000/svg" xmlns:xlink="http://www.w3.org/1999/xlink" x="0px" y="0px"
	 viewBox="0 0 160 160" style="enable-background:new 0 0 160 160;" xml:space="preserve">
<style type="text/css">
	.st0{fill:#FFFFFF;}
	.st1{fill:#D4145A;stroke:#FF862E;stroke-width:1.3201;stroke-miterlimit:10;}
	.st2{fill:none;stroke:#FF862E;stroke-width:1.3201;stroke-miterlimit:10;}
</style>
<g>
	<path class="st0" d="M14.9,55.5v47.7h130.3V55.5H14.9z M35,85l0.1,1.1h7.6V95H25.8V63.9h16.9L42.8,76l-8.5-0.5L35,85z M75.4,87.5
		c0,4.2-3.4,7.5-7.5,7.5h-9.3c-3.2,0-5.9-2-7-4.8c0,0,0,0,0,0c-0.3-0.8-0.5-1.7-0.5-2.7V71.3c0-4.2,3.4-7.5,7.5-7.5h9.3
		c3.5,0,6.3,2.3,7.2,5.4c0.2,0.7,0.3,1.4,0.3,2.1V87.5z M103.2,87.8c-1.2,4.2-5,7.3-9.5,7.3H80.5V63.7h13.2c5.5,0,9.9,4.5,9.9,9.9
		v11.5C103.6,86,103.5,86.9,103.2,87.8C103.2,87.8,103.2,87.8,103.2,87.8z M133.5,96h-25.3V64.7l1.2-0.1l24.1-1.7v8.2l-13.6-0.4
		l-1.6-0.1v6.9h15.2v5.1h-15.2v8.7h15.2V96z"/>
	<g>
		<polygon class="st1" points="35.1,86.1 41.2,86.1 41.2,94.3 25.8,94.3 25.8,63.9 41.2,63.9 41.3,74.5 32.5,74 33.3,85 35,85 		"/>
		<polygon class="st2" points="35,85 41.2,85 41.2,86.1 35.1,86.1 		"/>
		<polygon class="st2" points="41.2,63.9 25.8,63.9 25.8,94.3 23.6,94.3 23.6,61.9 41.2,61.9 		"/>
		<path class="st1" d="M75.1,69.2v16c0,4.3-3.5,7.8-7.8,7.8h-9.7c-2.4,0-4.6-1.1-6-2.8c0,0,0,0,0,0c-0.3-0.8-0.5-1.7-0.5-2.7V71.3
			c0-4.2,3.4-7.5,7.5-7.5h9.3C71.4,63.8,74.2,66.1,75.1,69.2z"/>
		<path class="st2" d="M75.1,68.3v0.9c-0.9-3.1-3.7-5.4-7.2-5.4h-9.3c-4.1,0-7.5,3.3-7.5,7.5v16.2c0,0.9,0.2,1.8,0.5,2.7
			c-1.1-1.3-1.8-3.1-1.8-5V68.3c0-4.3,3.5-7.8,7.8-7.8h9.7C71.7,60.5,75.2,64,75.1,68.3z"/>
		<path class="st1" d="M103.6,73.6v11.5c0,0.9-0.1,1.8-0.4,2.6c0,0,0,0,0,0c-1.8,3.2-5.1,5.3-9,5.3H80.5V63.7h13.2
			C99.2,63.7,103.6,68.2,103.6,73.6z"/>
		<path class="st2" d="M104.5,70.8v12c0,1.8-0.5,3.5-1.3,4.9c0.2-0.8,0.4-1.7,0.4-2.6V73.6c0-5.4-4.4-9.9-9.9-9.9H80.5v-3.2h13.7
			C99.9,60.5,104.6,65.1,104.5,70.8z"/>
		<polygon class="st1" points="118.3,70.6 118.3,77.5 133.5,77.5 133.5,81.1 119.9,81.1 119.9,82.6 118.3,82.6 118.3,91.3 
			133.5,91.3 133.5,95 109.4,95 109.4,64.6 133.5,62.9 133.5,69.1 119.9,68.7 119.9,70.7 		"/>
		<polygon class="st2" points="135.7,60.5 135.7,69.2 133.5,69.1 133.5,62.9 109.4,64.6 109.4,62.5 		"/>
		<polygon class="st2" points="119.9,75.9 135.7,75.9 135.7,81.1 133.5,81.1 133.5,77.5 118.3,77.5 118.3,70.6 119.9,70.7 		"/>
		<polygon class="st2" points="119.9,90.3 135.7,90.3 135.7,95 133.5,95 133.5,91.3 118.3,91.3 118.3,82.6 119.9,82.6 		"/>
	</g>
</g>
</svg>
